<svg id="Layer_1" data-name="Layer 1" xmlns="http://www.w3.org/2000/svg" viewBox="0 0 270.23 246.96"><defs>
  <style>.cls-1{fill:#fff;stroke:#070707;stroke-miterlimit:10;opacity:.1;}</style>
</defs><title>Artboard ۱</title><g id="OBJECTS"><path class="cls-1" d="M268.48,70.08c-5.2,1.6-10.3,3.5-15.4,5.3-1.1-.4-2.3-.6-3.4-1a39.56,39.56,0,0,1-4.5-1.5,61,61,0,0,1-8.6-3.9,69.64,69.64,0,0,1-15.1-11.2c.7-.5,1.4-.9,2-1.4.2-.1,0-.3-.1-.3-.9.5-1.7,1-2.6,1.5a.19.19,0,0,0,0-.3,131.5,131.5,0,0,1-11.3-22.1,168.84,168.84,0,0,1-6.9-23c1.5-2.2,3-4.3,4.5-6.5.2-.3-.3-.7-.6-.4-1.8,2.3-3.6,4.7-5.3,7.1-2.8.4-5.5,1.1-8.2,1.5-3.2.5-6.4.9-9.6,1.1a120.19,120.19,0,0,1-18-.2,119.69,119.69,0,0,1-34.8-8.9c.4-1.7.8-3.4,1.1-5.1,0-.3-.3-.4-.4-.1-.5,1.5-.9,3-1.3,4.5-.1-.2-.3-.3-.5-.1A138.42,138.42,0,0,1,88,28.48a136.32,136.32,0,0,1-22.8,5.9,152.13,152.13,0,0,1-24.3,1.9c-.2,0-.2.1-.2.3l-.1-.1c0-.2.1-.5.1-.7,0-.4-.6-.4-.6-.1v.1c-2.2-2.3-4.3-4.6-6.6-6.8-.2-.2-.4.1-.3.3,2.2,2.6,4.4,5.1,6.7,7.5A138.89,138.89,0,0,1,36,52.18a103,103,0,0,1-6.9,16,111.21,111.21,0,0,1-21,27.2l-.1.1c-.3-.1-.6-.1-.9-.2-2.1-.5-4.2-1-6.3-1.3-.3-.1-.4.4-.1.5,3.1.9,6.2,1.7,9.4,2.5,2.7,10.2,5.3,20.4,8,30.5,2.7,10.3,5.2,20.6,8.2,30.8-4.1,1.5-8.1,3.2-12.1,4.9a.22.22,0,0,0,.2.4c4.3-1.4,8.6-2.9,12.9-4.6A274.5,274.5,0,0,1,48,181.38c1.9,2.4,3.8,4.7,5.6,7.2.1.2.1.3.2.5s.2.1.3,0c4.3,5.8,8.4,11.7,12.4,17.6.2.3.6,0,.4-.2a188.55,188.55,0,0,0-13.1-19,72.73,72.73,0,0,0-2.2-8q-1.35-4.65-3-9.3c-.7-2-1.5-4-2.3-6a207.69,207.69,0,0,1,18.1,11,146.18,146.18,0,0,1,16.5,13.9c-2,2.8-4.1,5.5-6.2,8.2-5.5-9.5-14.1-18.3-24-23.1a.11.11,0,1,0-.1.2A83.13,83.13,0,0,1,64,184.58a66,66,0,0,1,10.3,13.2c-2.8,3.6-5.6,7.1-8.5,10.6-2.2,2.7-4.5,5.2-6.7,8-.2.3.1.7.4.4,2.8-2.9,5.4-6.1,8-9.2h0c21.4-1,41.7,9.4,54.5,26.3a12.86,12.86,0,0,0,.4,1.9l-.3.3v.1c.1,0,.2-.1.3-.1q1.05,5.1,2.4,10.2c.1.3.5.2.4-.1-.7-3.5-1.4-6.9-2.1-10.3.7-.3,1.4-.8,2.1-1.1,1.4-.7,2.9-1.4,4.4-2a44.73,44.73,0,0,1,8.1-2.5,50,50,0,0,1,18.1-.5c.4,1.4.9,2.7,1.3,4.1a19.46,19.46,0,0,0,.8,2.2c.1.4.8.2.6-.2l-2.1-6.6a136.05,136.05,0,0,1,13.1-12.1,108.86,108.86,0,0,1,15.7-10.3,111.48,111.48,0,0,1,35.1-12c3.4,2.5,6.7,5,10.2,7.3.3.2.6-.3.4-.5-2.1-1.7-4.3-3.4-6.4-5a202.13,202.13,0,0,1,6.6-54.8c1,.2,2,.3,3,.5a299.3,299.3,0,0,1,30.9,6.9.41.41,0,0,0,.2-.8,258.66,258.66,0,0,0-33-7.4,166.17,166.17,0,0,1,4.9-18.4,199.09,199.09,0,0,1,10.2-23.2,226.07,226.07,0,0,1,15.1-24.9c.1-.1-.1-.2-.2-.1-3.3,4.5-6.5,9.1-9.4,13.9a182.63,182.63,0,0,1,10.7-15.8c1.9-.7,3.8-1.4,5.7-2.2C269.08,70.58,268.88,69.88,268.48,70.08Zm-40.7-6a73.91,73.91,0,0,0,8,5.3,62.79,62.79,0,0,0,8.3,3.9,39.56,39.56,0,0,0,4.5,1.5c1.1.3,2.4.8,3.6,1-3.7,1.4-7.4,2.8-11,4.1l-4.4,1.6c-.1-.1-.3-.2-.4-.1h0c-2.4-3-4.9-5.8-7.4-8.7s-4.8-6-7.5-8.6c-.1-.1-.3,0-.2.1,2.1,2.9,4.6,5.6,7,8.4,2.6,3,5.1,6.1,7.8,9.1l.1.1-4,1.4a47.55,47.55,0,0,1-13.2-6.9,53.16,53.16,0,0,1-9.9-10.2c1.3-.9,2.7-1.7,4-2.6a38.81,38.81,0,0,0,6.8.4l7.9.3C227.68,64.18,227.68,64.18,227.78,64.08Zm-21.5,118.2-1.7.3a.55.55,0,0,0-.3-.7,4.1,4.1,0,0,1-1.1-.1c-1.5-1.1-3-2.2-4.4-3.2a81.23,81.23,0,0,1,2.3-10.9,59.92,59.92,0,0,1,4.7-10.7,52.85,52.85,0,0,1,6.9-9.4,40.65,40.65,0,0,1,4.2-4.1c1.2-1.1,2.6-2,3.8-3,1.1.2,2.1.4,3.2.5a47.79,47.79,0,0,0-5.7,10.7,70.58,70.58,0,0,0-3.9,12.6,71.93,71.93,0,0,0-1.4,13.1,51.67,51.67,0,0,0,1.2,12.4c-2.2-1.6-4.5-3.2-6.7-4.8l-2.2-1.6,1.4-.3C207.08,183,206.78,182.18,206.28,182.28Zm-56.9,25.3a.9.9,0,0,0-.5-.1l-2.1-6.3a32.46,32.46,0,0,1,13.9-23.5c9.1-6.1,21.7-6.7,31.5-2h0c.1.4.7.2.6-.2v-.2c3,2.2,6,4.4,8.9,6.5a61.19,61.19,0,0,0-28.8,6.6c-9.2,4.6-18.2,11.8-23.5,20.8-.1-.3-.2-.7-.3-1h.1C149.58,208.38,149.78,207.68,149.38,207.58Zm-87.7-61.8,4.1-1.6c2.7,1.9,5.5,3.7,8,5.8a49.23,49.23,0,0,1,7.3,7.8,55,55,0,0,1,5.2,8.3,65.62,65.62,0,0,1,3.7,9.6c-.4.6-.9,1.3-1.3,1.9A79.91,79.91,0,0,0,61.68,145.78Zm26.6,32.5a21.41,21.41,0,0,1-1.3,1.9c-11.2-10.5-22.7-20.6-34.1-30.9l-.1-.1,8.6-3.3A84.52,84.52,0,0,1,88.28,178.28ZM46,104.68c-.2,0-.4-.1-.6-.1a63.87,63.87,0,0,0,15.9-12.9c6.9-1.6,13.5-7.2,16.8-13.4,1.1,1.2,2.3,2.4,3.4,3.6a44.85,44.85,0,0,1-19.7,26.6c-5-1.2-9.9-2.3-14.9-3.5-.1-.1-.2-.3-.3-.4C46.38,104.08,45.88,104.38,46,104.68ZM129.18,13a6.11,6.11,0,0,1-.7,1.4c.1-.6.3-1.3.4-1.9a69.22,69.22,0,0,0,29.3,15.2,76,76,0,0,0,16.4,2.1,55.05,55.05,0,0,0,15.1-1.6c-.1.1-.1.2-.2.2-1.1,1.5-2.2,3.1-3.3,4.6a96.79,96.79,0,0,1-30.5,6.1,102.5,102.5,0,0,1-31.1-4.3c1-6.3,2.2-12.5,3.5-18.7a28.25,28.25,0,0,0,1.1-3.1C129.48,13,129.18,12.88,129.18,13Zm62.4,14.3a22,22,0,0,1,1.4-1.8h0A39.36,39.36,0,0,0,209.28,65c-.3.2-.5.3-.8.5-.1-.1-.2-.3-.3-.4s-.3,0-.2.1.2.3.3.4c-.6.4-1.2.8-1.7,1.1a43.83,43.83,0,0,1-7.6-5.4,35.74,35.74,0,0,1-6.4-8,38.27,38.27,0,0,1-5.5-19.5.1.1,0,0,0-.1-.1v-.1l.2-.2c1.2-1.7,2.4-3.4,3.6-5a2.18,2.18,0,0,1,.4-.5c.2,0,.3-.1.5-.1S191.78,27.38,191.58,27.28Zm2.1-2.6h-.3c.9-1.2,1.7-2.3,2.6-3.5a109.41,109.41,0,0,0,16.8,41.4c-1,.6-2,1.3-3,2l-.1-.1a40.13,40.13,0,0,1-16.6-39.1h.6C194.08,25.28,194.08,24.68,193.68,24.68Zm-49.3,168.7c-.1,0-.1,0-.2-.1-.3-.8-.5-1.6-.8-2.4a62.66,62.66,0,0,1,7.4-19.1,55.64,55.64,0,0,1,15.1-16.2c1.1.8,2.3,1.6,3.4,2.5,1.4,1,2.7,2,4.1,3v.1c0,.1.1.1.1,0a1.76,1.76,0,0,1,.5.4,46.41,46.41,0,0,0-19.5,13.2,48.13,48.13,0,0,0-6.6,10,47.08,47.08,0,0,0-2.1,5.2,24.93,24.93,0,0,0-1.2,4.7l-.3-.9C144.48,193.68,144.58,193.48,144.38,193.38Zm-6.7-21c-.1,0-.3-.1-.4-.1-.9-2.8-1.8-5.5-2.7-8.3,4.4-3.4,8.8-6.4,14-8.3a50.94,50.94,0,0,1,7.9-2.1c2.5-.4,5.4-.4,7.5,1.1v.1c0,.2.2.3.3.1h0l.3.3c-10.7,3-20.6,10.2-26.1,19.9-.1.2.2.4.3.2a47.11,47.11,0,0,1,25.1-19c-10.5,8.1-18.7,20.4-20.8,33.6-.3-.8-.5-1.6-.8-2.3,0-.1,0-.3-.1-.3-.7-2.2-1.4-4.3-2.1-6.5-.8-2.5-1.7-5.1-2.5-7.6h0C138,173.08,138.08,172.48,137.68,172.38Zm-15.3-11.9a23.33,23.33,0,0,0-5.8.9c.1-3.6.4-7.2.6-10.8.1.1.2-.1.2-.2a.76.76,0,0,0-.2-.4c.2-2.2.3-4.3.5-6.5a.22.22,0,0,0,.2-.2c0-.2-.1-.3-.1-.5.2-2.5.5-5,.8-7.4a12.25,12.25,0,0,0,.2-1.9,2.35,2.35,0,0,0,.8.2.19.19,0,0,0,.1-.3,4.05,4.05,0,0,0-.9-.5c.4-3.1.8-6.1,1.3-9.2.1,0,.3-.1.4-.1h.1c1.2,4.5,2.8,9,4.2,13.4v.1c0,.3-.1.5-.1.8,0,.1.2.1.2,0s0-.1.1-.2c.4,1.3.8,2.5,1.2,3.8-2.2-1.1-6.4-1.8-8.1.4h0c1.2-.1,2.3-.7,3.5-.8a8,8,0,0,1,4.3.9c.2.1.4,0,.4-.2h0c.9,2.6,1.7,5.3,2.6,7.9,0,.2-.1.3-.1.5s.2.2.2.1v-.1c.1.2.1.4.2.6s.1.3.1.4a24.58,24.58,0,0,0-4.4-.9,16.37,16.37,0,0,0-7.9.8c-.2.1-.1.3.1.3a29.93,29.93,0,0,1,7.3-.5,16.06,16.06,0,0,1,3.8.8,5.78,5.78,0,0,1,1.4.5c1.2,3.7,2.4,7.3,3.6,11a26.58,26.58,0,0,0-11.1-2.6C122.58,160.58,122.48,160.48,122.38,160.48Zm-7,28-.6-.6-.9-1.5c-.1-.2-.4,0-.3.2a.1.1,0,0,0,.1.1,109.79,109.79,0,0,0-8.6-8.1c-1.7-1.5-3.5-2.9-5.3-4.4a41,41,0,0,0-4.7-3.5,51.21,51.21,0,0,1,11.5,3.6,35.54,35.54,0,0,1,5.3,3.2c1.4,1,2.6,2.3,3.9,3.3l.3,9.3c-.2-.4-.4-.7-.6-1.1a.76.76,0,0,1-.2-.4C115.28,188.78,115.38,188.58,115.38,188.48Zm-15.7-25.8c0-.1-.1-.3-.1-.4s.1-.1.1-.2a71.14,71.14,0,0,1,7.5,3.3,41,41,0,0,1,7.7,5.4c.3.3.9-.2.5-.5-4.4-3.7-9.7-7.2-15.4-8.6.1-.2.3-.5.4-.7,5.1.5,10.3.2,15.4.2.1,0,.1,0,.2-.1v.4a.37.37,0,0,0-.3.1c-.2.1-.2.4.1.4h.2c-.2,6-.3,11.9-.2,17.9-1-.9-2.2-1.7-3.2-2.5a40.84,40.84,0,0,0-5.7-3.4,31.23,31.23,0,0,0-12.3-3.6c.4-.6.8-1.3,1.2-1.9.1-.1.2-.2.2-.3,1.1-1.7,2.2-3.5,3.3-5.3h0C99.28,163.18,99.78,163,99.68,162.68Zm-18-105a82,82,0,0,0,18.7-9.4,82.47,82.47,0,0,0,13.3-11.1c.1-.1.3-.1.4-.2a.37.37,0,0,0,.1-.3,78.16,78.16,0,0,0,12.4-17.3c-.6,2.9-1.1,5.9-1.7,8.8q-1.35,7.8-2.4,15.6c-9.1,4.3-18.4,8.1-27.9,11.5s-19.1,5.9-28.8,8.5a.1.1,0,0,0-.1.1c-.6-.7-1.3-1.4-1.9-2.1A71.72,71.72,0,0,0,81.68,57.68ZM63.18,61c-2.1-2.2-4.1-4.4-6.2-6.6A136.08,136.08,0,0,0,86,49a125.66,125.66,0,0,0,25.5-10.5A79.8,79.8,0,0,1,63.18,61Zm128.7-7.3a39.19,39.19,0,0,0,6.5,8.1,32.9,32.9,0,0,0,7.3,5.4L203,69a.1.1,0,0,0-.1.1c-1.2.8-2.5,1.6-3.7,2.4a31,31,0,0,1-13.3-11,34.21,34.21,0,0,1-5.7-17.2v-.1c.5-.6.9-1.3,1.4-1.9.1,0,.1-.1.2-.1s.2-.2.2-.3c1.7-2.3,3.3-4.6,5-6.9A32.8,32.8,0,0,0,191.88,53.68Zm5.9,82.2c-.8-.1-1.6-.3-2.3-.4-.1-1.5-.5-3.1-.7-4.6-.2-1.9-.3-3.7-.4-5.6a59.67,59.67,0,0,1,1.1-11.1,48.71,48.71,0,0,1,9.3-20.1.37.37,0,0,0,.1-.3l16.8-6a71.1,71.1,0,0,0-10.1,15.1C203.68,111.68,199,124.08,197.78,135.88Zm13.1-31.6a78.8,78.8,0,0,0-7.5,32.5c-1.6-.3-3.3-.5-4.9-.8a63.19,63.19,0,0,1,4.2-17A75.61,75.61,0,0,1,210.88,104.28Zm-27.3,62.4v1c-3.3-2.4-6.6-4.8-9.8-7.2a.37.37,0,0,1,.1-.3.1.1,0,0,0,.1-.1v-.3c.1-.5.1-1.1.2-1.7a21.74,21.74,0,0,0,.2-3.6c0-.1-.2-.2-.3,0l-.3,1.5a35.92,35.92,0,0,1,.9-9.2,33.81,33.81,0,0,1,5.9-12.4c.3-.4-.3-.7-.6-.4a34.69,34.69,0,0,0-5.9,12.6,28.38,28.38,0,0,0-.6,12.3c0,.4-.1.8-.1,1.2-2.3-1.7-4.6-3.3-6.8-5a.42.42,0,0,0-.6-.5h-.1l-1.2-.9a47.13,47.13,0,0,1,5.3-11.1,37,37,0,0,1,9.3-9.2c2,.3,3.9.7,5.9,1v.1c.1.3.5.2.6,0l7.2,1.2C185.28,143.78,181.28,155.78,183.58,166.68Zm-52-14.3a3.59,3.59,0,0,0-1-.7c-.2-.8-.5-1.5-.7-2.3a27.16,27.16,0,0,1,4.3-6.5,18.21,18.21,0,0,1,7-4.3v.4a.15.15,0,1,0,.3,0v-.6c.2-.1.4-.1.6-.2,2.8,2.1,5.7,4.2,8.5,6.2a24.41,24.41,0,0,0-3.9.6,26.7,26.7,0,0,0-6.1,2.4,21.44,21.44,0,0,0-8.6,8.8c-.4-1.3-.8-2.5-1.3-3.8a1.27,1.27,0,0,0,.6.1C131.58,152.68,131.68,152.48,131.58,152.38ZM120.78,121a.1.1,0,0,1-.1.1c-.1-2-.2-4-.3-6.1a7.64,7.64,0,0,0,6.6.1c-1.2,1.7-2.5,3.5-3.7,5.2-.7.5-1.4.9-2.1,1.4h-.1c-.2.1-.4.1-.5.2.1-.3.3-.6.4-.9C121.08,120.88,120.88,120.78,120.78,121Zm-24.5-3.6,7.8,1.8c.8,2.9,1.5,5.7,2.3,8.6-.6.2-1.2.5-1.8.7a19.45,19.45,0,0,1-2.2.8h-.1c-.7.3-1.3.5-2,.8C100.78,125.58,99,121,96.28,117.38Zm24.5-47c.1-1.2.2-2.3.2-3.5a33.16,33.16,0,0,0,5.4,5.8,42.78,42.78,0,0,0,7.8,5.6,43.75,43.75,0,0,0,15.6,5.3c-.5.6-.9,1.3-1.4,1.9a21.36,21.36,0,0,0-3.4.9,34.41,34.41,0,0,1-4.5.5,22.15,22.15,0,0,1-8.4-1.4,24,24,0,0,1-11.7-9.1l.3-5.1c.1-.1.2-.2.3-.2A.42.42,0,0,0,120.78,70.38Zm1.3-15.5c.2-1.9.4-3.7.6-5.6a88.16,88.16,0,0,0,7.7,8.5,52.18,52.18,0,0,0,9.4,7.6c5.7,3.6,13.3,5.9,20,4.3-2.1,2.9-4.2,5.8-6.3,8.8h-.1c-.1-.1-.1-.2-.2-.3s-.4,0-.3.2h0a44,44,0,0,1-17-6.4,48.14,48.14,0,0,1-7.5-6,71.15,71.15,0,0,1-6.4-7.9c-.1-.1-.3,0-.2.1,2.9,5.7,8.2,10.5,13.4,14A44,44,0,0,0,153,79c-.9,1.3-1.8,2.6-2.8,3.8a43.93,43.93,0,0,1-15.8-5.2,41.55,41.55,0,0,1-7.7-5.5A65.37,65.37,0,0,1,121,66v-.6c.3-3.5.6-6.9.9-10.4C122.08,55.08,122.08,55,122.08,54.88Zm72.8,41.6c-5.7,2.1-11.4,4.1-17.1,6.2-.2-1.2-.8-2.4-1-3.5a22.06,22.06,0,0,1-.5-5.1,20.27,20.27,0,0,1,1.8-8c2.9-1.8,5.7-3.7,8.6-5.5a27.08,27.08,0,0,0-2,8.5c-.2,3.1,0,7.3,1.6,10,.1.1.3.1.2-.1-.2-1.3-.6-2.6-.9-4a24.58,24.58,0,0,1-.4-5.4,28.92,28.92,0,0,1,1.8-9.2c3.6-2.3,7.3-4.7,10.9-7a25.65,25.65,0,0,0-4,11.2A23.19,23.19,0,0,0,194.88,96.48Zm-15.4,36.1a1.38,1.38,0,0,1-.4.3l-5.3-.9c2.3-2.2,4-5.3,5.8-7.8,1.6-2.3,3.5-4.5,5-6.9a25.88,25.88,0,0,0,0,16.5c-1.6-.3-3.2-.5-4.8-.8C180.08,132.68,179.78,132.38,179.48,132.58Zm0-9.3c-1,1.4-2,2.8-3.1,4.3a40.48,40.48,0,0,0-2.9,4.3c-1.6-.3-3.2-.5-4.8-.8a75.87,75.87,0,0,1-.9-11.7,48,48,0,0,1,2.3-13v-.1c2.3-.8,4.6-1.7,6.8-2.5h0a80.55,80.55,0,0,1-5.9,27.4c-.1.2.2.3.3.1a68,68,0,0,0,6.3-27.7h0l17.4-6.3c.2.3.3.7.5,1a47.63,47.63,0,0,0-5.5,7.8,47,47,0,0,0-4.7,9.2h0C183.18,117.68,181.38,120.68,179.48,123.28Zm-30.6,19c-2.1-1.6-4.3-3.1-6.4-4.7l-.1-.1a3,3,0,0,0-.7-.5,14.43,14.43,0,0,1,5.1-8.8h.1c0,.1.1.3.1.4s.2.1.2,0a.37.37,0,0,0-.1-.3c2.1.3,4.2.7,6.3,1,0,.1.1.1.2,0,.5.1.9.1,1.4.2A14.89,14.89,0,0,0,148.88,142.28Zm-11.3-8.7a.9.9,0,0,0-.5.1l-.2-.2a11.91,11.91,0,0,1,1.9-3.5,9.09,9.09,0,0,1,2.1-1.8c.5-.3,1.1-.5,1.6-.8l3.3.6a13.59,13.59,0,0,0-4.6,8.7c-1.2-.9-2.4-1.7-3.6-2.6h.1C137.88,134,137.78,133.58,137.58,133.58Zm-5.8-3.8c-.4-.3-.9-.6-1.3-.9,0-.2-.2-.3-.4-.3-2-1.5-4.1-3-6.2-4.4l8.1,1.5A18.5,18.5,0,0,0,131.78,129.78Zm-8.8-6.3c-.1-.1-.3-.2-.4-.3.1,0,.2-.1.3-.1a21.29,21.29,0,0,0,2.7-.7c.1,0,.1-.1,0-.2,2.7-.9,5.3-1.8,8-2.7-.2.5-.4,1.1-.6,1.6a27.93,27.93,0,0,0-1,3.9Q127.63,124.23,123,123.48Zm2.6-2.3a11.14,11.14,0,0,0-3,.8c.1-.2.3-.4.4-.6,3.2-2,6.3-4,9.5-6a2.84,2.84,0,0,0,1.2.4c.1,0,.2-.1.1-.2a5.58,5.58,0,0,0-.8-.5l8.7-5.7c-.8,2.3-1.4,4.7-2,7-1.7.6-3.3,1.2-5,1.8.9-1.8,2-3.4,3-5.2.1-.2-.2-.4-.3-.2a18.22,18.22,0,0,0-3.5,5.7c-3.5,1.3-6.9,2.6-10.4,3.9-.5.1-1.1.3-1.6.4h-.1a24.3,24.3,0,0,0,3.8-1.3C125.78,121.38,125.78,121.18,125.58,121.18Zm3.5-7.9h0l3.3-4.5a4.47,4.47,0,0,0,1.6,2.4,6.26,6.26,0,0,0,2,1l-3.6,2.4c-.1-.1-.2-.1-.3-.2a4.38,4.38,0,0,1-1.4-2.2c0-.1-.2-.1-.2,0a5.28,5.28,0,0,0,1.1,2.4l.3.3c-2.2,1.4-4.4,2.8-6.6,4.3-.4.2-.7.5-1.1.7,1.3-1.8,2.6-3.6,3.9-5.3a5.24,5.24,0,0,0,1.1-1C129.28,113.38,129.18,113.18,129.08,113.28Zm14-5.7c-.2.2-.5.3-.7.5-.1,0-.1,0-.2.1-.6.4-1.2.8-1.7,1.1h0a4.13,4.13,0,0,0-1.5-.7,5.94,5.94,0,0,1-1.8-1.3,6.77,6.77,0,0,1-1.8-2.6l3.3-4.5A7.72,7.72,0,0,0,143.08,107.58Zm5.5-4.5c-.9-1.6-2.3-3-3.3-4.7a28.64,28.64,0,0,1-2-4.8c1.3-1.7,2.5-3.5,3.8-5.2a16.6,16.6,0,0,0,1.3,7.3c.8,1.9,2.1,4.5,3.9,5.9-2.9,1.9-5.8,3.7-8.7,5.6a8.44,8.44,0,0,1-4.7-7.4l4.2-5.7a15.21,15.21,0,0,0,1.6,4.2c.8,1.7,2.1,4,3.7,5C148.58,103.38,148.68,103.28,148.58,103.08Zm5.6-24.3c.8-1.1,1.5-2.1,2.3-3.2,1.5-2.1,3-4.1,4.5-6.2.2-.1.5-.1.7-.2.4-.1.2-.6-.1-.6,1.5-2.1,3.1-4.2,4.6-6.3a28.51,28.51,0,0,0,.4,13.3,26.82,26.82,0,0,0,2.7,6.8c1,1.8,2.4,4.4,4.1,5.7l-3.3,2.1a27.39,27.39,0,0,1-16.2-11h0C154.18,79.28,154.28,79,154.18,78.78Zm14-19.3c3.5-4.8,7-9.6,10.5-14.5a45.81,45.81,0,0,0-5.3,19.5,46.19,46.19,0,0,0,3.4,21.4c-.8.5-1.7,1.1-2.5,1.6-.1.1-.3.2-.4.3-.5-.8-1.2-1.5-1.8-2.3-.7-1-1.4-2-2-3a27,27,0,0,1-2.7-6.6,32.87,32.87,0,0,1-.6-14.3l1-1.4c.1,0,.3-.1.4-.1C168.38,59.88,168.38,59.58,168.18,59.48Zm10.3,25c-.1.2-.2.3-.3.5l-.9.6A53.37,53.37,0,0,1,174,65a53.66,53.66,0,0,1,5.1-19.7,93.19,93.19,0,0,0,6.4,35l-6.9,4.5c0-.1.1-.1.1-.2S178.48,84.38,178.48,84.48Zm-2.7,13.9a9.63,9.63,0,0,0,1.5,4.4c-2.6.9-5.1,1.9-7.7,2.8-3-3.6-3.6-8-2.6-12.5h0c.4-.3.8-.5,1.2-.8.7-.5,1.4-.9,2.1-1.4a.37.37,0,0,1,.3.1c.3.1.5-.3.4-.5,2-1.3,4.1-2.6,6.1-3.9h.2a20.66,20.66,0,0,0-1.8,7A25.8,25.8,0,0,0,175.78,98.38Zm-22.5,30.1-2-.3c-1.4-.2-2.8-.5-4.2-.7-.1-.1-.2-.2-.3-.2a21.19,21.19,0,0,1,2.3-13.3c1.8-.7,3.6-1.3,5.4-2-.3,2.5-.4,5-.6,7.5C153.68,122.48,153.18,125.48,153.28,128.48Zm-6.7-1.1h0c-1.2-.2-2.4-.4-3.5-.6h0c-1.4-.2-2.8-.5-4.2-.7a11.11,11.11,0,0,1-.1-4.8,10.71,10.71,0,0,1,.9-2.7,6.71,6.71,0,0,1,.9-1.4c2.6-.9,5.2-1.8,7.7-2.8A17.8,17.8,0,0,0,146.58,127.38Zm-8-1.4c-2-.3-4-.7-6-1,.2-1.1.5-2.3.8-3.4l.9-2.4c1.7-.6,3.3-1.2,5-1.8a12.71,12.71,0,0,0-1.2,3.6A9.26,9.26,0,0,0,138.58,126Zm15.9-5.3c.3-3,.7-6,.8-8.9,1.8-.6,3.5-1.3,5.3-1.9a69.5,69.5,0,0,1,.2,10.2c-.1,1.8-.3,3.6-.5,5.5-.2,1.4-.6,2.8-.7,4.1-2-.3-3.9-.7-5.9-1A74.72,74.72,0,0,0,154.48,120.68Zm4.3-11.2c-.4.1-.8.3-1.2.4a.37.37,0,0,0-.1-.3c-.9-1.1-1.7-2.2-2.6-3.3s-1.6-2.4-2.8-3.1c-.1,0-.1,0-.1.1a10,10,0,0,0,2.4,3.4c.9,1.1,1.7,2.2,2.6,3.4h0l-1.8.6c-.1-.2-.5-.2-.5.1v.1c-1.8.6-3.6,1.3-5.4,1.9-.1-.1-.3-.1-.5.1v.1c-2.6.9-5.1,1.8-7.7,2.8,0-.1-.2-.3-.3-.2s-.2.2-.3.2q1.05-3.45,1.8-6.9c.5-.3.9-.6,1.4-.9.9-.6,1.8-1.2,2.7-1.7a66,66,0,0,0,2,6.3c.1.4.7.2.6-.2-.7-2.1-1.3-4.3-2.2-6.4,2.1-1.3,4.1-2.7,6.2-4a.1.1,0,0,1,.1.1.22.22,0,0,0,.3-.3h0c2.5-1.6,4.9-3.2,7.4-4.8l.1.1a15.52,15.52,0,0,0-.8,5.6,14.49,14.49,0,0,0,1.4,5.7A10.91,10.91,0,0,1,158.78,109.48Zm2.7-3.1a13.59,13.59,0,0,1-.7-3.5,16.91,16.91,0,0,1,.6-5.5c.1-.1.2-.3.1-.4s.1-.2.1-.4l5.1-3.3c-1.7,4.2-.5,9.2,2.3,12.6-2.2.8-4.5,1.6-6.7,2.4A10.84,10.84,0,0,1,161.48,106.38Zm-1-37.5c-7.3,1.5-14.4-.3-20.8-4.2a47.57,47.57,0,0,1-8.9-7.2c-1.7-1.7-3.3-3.6-5-5.4,5.4,4.7,12.7,7.5,19.6,8.9a47,47,0,0,0,21.1-.6C164.48,63.28,162.48,66.08,160.48,68.88Zm8.8,21.8-7.5,4.8h-.1l-.9.6a39,39,0,0,1-5.1-6.3,55.61,55.61,0,0,1-3.9-7.7l-.1-.1c.6-.9,1.2-1.7,1.8-2.6A26.56,26.56,0,0,0,169.28,90.68Zm-17.4-7.5c-.3,0-.5-.1-.8-.1a3,3,0,0,0,.5-.7A6.9,6.9,0,0,1,151.88,83.18Zm.1.7h0a35.62,35.62,0,0,0,8.2,12.7c-2.4,1.6-4.9,3.1-7.3,4.7-.6-.7-1.3-1.4-1.9-2.2a20.16,20.16,0,0,1-1.8-3.2,17.84,17.84,0,0,1-1.7-7.9c1-1.4,2.1-2.9,3.1-4.3C151.08,83.78,151.48,83.78,152,83.88Zm-15.5,23.6c.8.9,2.3,2.1,3.5,2.1-1.1.7-2.3,1.5-3.4,2.2a11.76,11.76,0,0,1-2-.7,5,5,0,0,1-2-2.5.1.1,0,0,0-.1-.1c.8-1.1,1.7-2.3,2.5-3.4A9.74,9.74,0,0,0,136.48,107.48Zm-5.7,2.5c0-.1-.1-.1-.2-.1-3.4-.3-6.9-.6-10.3-.6-.1-2.5-.1-5-.2-7.5a14.12,14.12,0,0,0,12.6,5.6C132.08,108.18,131.38,109.08,130.78,110Zm1.6,15.7c2.2.4,4.3.8,6.5,1.1,0,.1.1.1.1.2h.1v-.1c.7.1,1.5.3,2.2.4a11.61,11.61,0,0,0-2.9,2.4,9.6,9.6,0,0,0-1.9,3.6L132,130C132.08,128.58,132.18,127.08,132.38,125.68Zm22.9,4.3c.1-.1.2-.3.1-.4,1.4.2,2.7.5,4.1.7v.1c0,.1.1.1.1,0a.1.1,0,0,1,.1-.1c2.3.4,4.5.7,6.8,1.1h0c-6.1,2.2-11.9,7.1-14.4,13.2H152c-.9-.7-1.8-1.3-2.7-2A15.36,15.36,0,0,1,155.28,130Zm4.7-.4a28.32,28.32,0,0,0,.8-4,44.29,44.29,0,0,0,.6-5.1,57.92,57.92,0,0,0-.2-11c.3-.1.5-.2.8-.3l.3.3c.1.1.4,0,.3-.2s-.1-.2-.1-.3c2.3-.9,4.7-1.7,7-2.5a47.5,47.5,0,0,0-2.2,12.4,37.93,37.93,0,0,0,1,12.1c-.2,0-.4-.1-.6-.1a.6.6,0,0,0-.4-.1C164.88,130.38,162.48,130,160,129.58Zm26-49.7a100.35,100.35,0,0,1-6.7-35.1c.1-.2.2-.5.3-.7-.1,11.8,8.3,23.1,18.8,27.8C194.28,74.58,190.18,77.28,186,79.88Zm-13.5-27.8-5.4,7.5a46.37,46.37,0,0,1-21.6.8,47,47,0,0,1-10.8-3.5,65,65,0,0,1-9.7-6c-.1-.1-.2,0-.2.1a15.38,15.38,0,0,0-1.2-1.3,48.43,48.43,0,0,0,12.6,4.4,49.28,49.28,0,0,0,15.8.7,47.4,47.4,0,0,0,26.4-11.9c.5-.2.9-.5,1.4-.7C177.38,45.48,175,48.78,172.48,52.08Zm-21,2.1a48,48,0,0,1-15.1-.7,46.75,46.75,0,0,1-7.3-2.1c-2.2-.8-4.2-1.9-6.3-2.9.2-1.4.4-2.9.6-4.3V44c.1-1.1.3-2.2.5-3.3h0c8.4,5.5,18.8,8,28.8,8.1a56.57,56.57,0,0,0,24.6-5.4A51.49,51.49,0,0,1,151.48,54.18Zm-19.9,31.7a22.38,22.38,0,0,0,8.4,1.6,27.28,27.28,0,0,0,4.1-.3,16.63,16.63,0,0,0,3.7-.9c-1.6,2.2-3.1,4.3-4.7,6.5-.1-.2-.1-.4-.2-.5s-.2-.1-.2,0c0,.3.1.6.1.8-1.2,1.6-2.3,3.2-3.5,4.8,0-.1-.1-.1-.2-.2-8.7-2.5-15.1-8.6-19-16.5,0-1.5.1-3,.2-4.5A24.79,24.79,0,0,0,131.58,85.88Zm7.5,12.5h0l-.6.9c-1.1,1.6-2.3,3.2-3.4,4.7a.9.9,0,0,1-.1-.5c0-.1-.3-.1-.3,0a2.35,2.35,0,0,0,.2.8c-.6.8-1.1,1.6-1.7,2.4a.35.35,0,0,0-.2-.1,14.57,14.57,0,0,1-12.8-5.4c0-3-.1-6,0-9a22.17,22.17,0,0,0,14,11.7c.4.1.5-.5.2-.6a23.3,23.3,0,0,1-14.1-11.6c0-3.2.1-6.4.2-9.5C123.48,90.08,131,96.18,139.08,98.38ZM119.88,71a41.28,41.28,0,0,1-22,8.5,39.69,39.69,0,0,1-13.3-1.4,54.21,54.21,0,0,0,5.7-.1,57.75,57.75,0,0,0,10.8-1.7,59,59,0,0,0,19.1-8.7A18.7,18.7,0,0,0,119.88,71Zm-.1.9c-.2,3.8-.4,7.7-.5,11.6-.1,0-.1.1-.2.1a31.54,31.54,0,0,1-9.2,9.7A33.19,33.19,0,0,1,97.78,98h-.1c-.1-.2-.3-.3-.4-.5s-.1-.2-.1-.3-.2-.2-.4-.2c-.4-.4-.8-.9-1.2-1.3a51.78,51.78,0,0,0,14.9-11.1l.1-.1a.31.31,0,0,0,.1-.2,41.12,41.12,0,0,0,7.4-11.2A10.38,10.38,0,0,0,119.78,71.88Zm-12.2,37.8,4.6,4.9,7.5,7.8c-3-.7-5.9-1.5-8.9-2.2a.35.35,0,0,0-.1-.2c-.1-.2-.3-.1-.3,0v.1c-1.1-.3-2.2-.5-3.4-.8h0c.4-3.1.5-6.2.6-9.3Zm10.5,13.6c-.1.1-.1.2,0,.2-.2.1-.5.2-.7.3l-.1.1c-1.9.6-3.7,1.2-5.5,1.9a42.93,42.93,0,0,0-.7-5l2.5.6c1.9.4,3.9.8,5.9,1.2A9.08,9.08,0,0,0,118.08,123.28Zm1.3.5c-1.2,2.4-2.4,4.7-3.5,7.1-.4-.7-.9-1.4-1.3-2-.6-.9-1.1-1.7-1.7-2.6,1.8-.7,3.5-1.4,5.2-2.2.1,0,.1-.1.1-.2h0A4.87,4.87,0,0,0,119.38,123.78Zm-7.9,2.1c-1.5.6-3.1,1.2-4.6,1.8-.7-2.8-1.4-5.5-2.1-8.3,1.9.4,3.8.9,5.6,1.3A32.14,32.14,0,0,0,111.48,125.88Zm-4.4-16.1c-.2,3.1-.5,6.2-.4,9.3l-3.6-.9c-1.7-6.4-3.5-12.7-5.3-19.1,3.3,3.5,6.5,7,9.8,10.4C107.38,109.48,107.08,109.58,107.08,109.78Zm-5.2-7.3a16.32,16.32,0,0,0,9.9-1.8c3-1.5,6.3-4.5,7.4-7.8v7.2c-.1,0-.2,0-.1.1s.1.1.1.2v1.1c-.8.6-1.5,1.4-2.3,2.1a18.52,18.52,0,0,1-3.3,2.1,16.18,16.18,0,0,1-7.5,1.4C104.68,105.58,103.28,104,101.88,102.48Zm17.3-10.1c-.1,0-.2,0-.2.1a41.46,41.46,0,0,1-3,4.3,18.13,18.13,0,0,1-4.1,3.2,17.06,17.06,0,0,1-10.4,2.1l-3.3-3.6c8.6-.7,16.7-6.6,21.2-13.8C119.18,87.18,119.18,89.78,119.18,92.38Zm-21.5,14.9a28.64,28.64,0,0,0,.2-5.1c1.6,5.4,3.2,10.7,4.9,16.1l-7.4-1.8C96.88,113.78,97.38,110.18,97.68,107.28Zm5,22.8c1,1.8,2.1,3.6,3.1,5.4a68.17,68.17,0,0,0,3.9,6.4c.2.3.6,0,.4-.2-.9-2.1-2.4-4-3.5-6s-2.3-3.9-3.6-5.8c.8-.3,1.6-.6,2.5-.9,2.3-.9,4.6-1.7,6.9-2.6.5.9,1.1,1.8,1.6,2.7a18.19,18.19,0,0,0,1.5,2.3c-.6,1.2-1.2,2.3-1.7,3.5h-.3c-.1,0-.1.2,0,.2h.2c-1.5,3-3,5.9-4.6,8.8-.6,1.1-1.2,2.1-1.7,3.2a22,22,0,0,0-3.4-8.2,23.78,23.78,0,0,0-6.5-6.9C99.18,131.48,100.88,130.78,102.68,130.08Zm9.4,9.9a5.83,5.83,0,0,1,2.9.6,5.34,5.34,0,0,1,2.3,2.4c-.2,2.1-.4,4.1-.6,6.2a14.87,14.87,0,0,0-2.8-2.3,10,10,0,0,0-4.7-1.5C110.18,143.58,111.08,141.78,112.08,140Zm.2-.4,2.1-4.2a4.24,4.24,0,0,1,1.4.6,7.28,7.28,0,0,1,1.8,1.7c.1.1.3,0,.3-.2-.4-1.3-1.9-2.1-3.3-2.4l1.5-3,.1.1a12.15,12.15,0,0,0,2,.9c.1.1.3.1.4.2-.4,2.9-.7,5.7-1,8.6A6.24,6.24,0,0,0,112.28,139.58Zm5.8-7.1a10.66,10.66,0,0,0-1.9-.7h-.1a.35.35,0,0,1,.1-.2c1.2-2.6,2.5-5.1,3.6-7.8-.5,3-1,5.9-1.4,8.9C118.38,132.58,118.28,132.48,118.08,132.48Zm-11.6-25a14.09,14.09,0,0,0,7-1c1.9-.8,4.6-2.3,5.7-4.2,0,2.2.1,4.5.2,6.7a7.24,7.24,0,0,1-8.6,1.9c-.2-.1-.4.2-.2.3a7.28,7.28,0,0,0,8.8-1.3,9.7,9.7,0,0,0,.1,1.7,24.52,24.52,0,0,0,.2,2.7c-.1-.1-.2-.1-.3-.2s-.3.1-.2.2.3.3.5.4c.1,2.3.3,4.6.5,7a.22.22,0,0,0,.2.2c-.1.1-.1.3-.2.4C115.58,117.28,111.08,112.38,106.48,107.48Zm13.8,2.1a87.58,87.58,0,0,0,10.2.8c-.8,1.2-1.7,2.3-2.5,3.5a8.29,8.29,0,0,1-7.5.5C120.38,112.88,120.28,111.28,120.28,109.58ZM123,124c2.2,1.7,4.4,3.3,6.6,5a14.42,14.42,0,0,0-4.3,6.8c-1.2-3.6-2.4-7.1-3.5-10.7l-.6-1.5A11.63,11.63,0,0,0,123,124Zm7.1,5.4c.6.4,1.2.9,1.8,1.3v.6c0,.1.1.1.1,0v-.4c1.4,1,2.8,2.1,4.2,3.1a16.88,16.88,0,0,0-4.8,2.5A15.72,15.72,0,0,0,127,141c-.5-1.4-1-2.9-1.4-4.3A13.94,13.94,0,0,1,130.08,129.38Zm1.6,7.5a19.47,19.47,0,0,1,4.6-2.2v.5c0,.1.2.2.2,0s.1-.4.1-.6c.1,0,.2-.1.3-.1,1.4,1.1,2.9,2.1,4.3,3.2v.3a20.32,20.32,0,0,0-7.2,4.3,16,16,0,0,0-4.4,6.4l-2.4-7.2A21.84,21.84,0,0,1,131.68,136.88Zm8.9,11.5a20.34,20.34,0,0,1,5.9-2.4,44.62,44.62,0,0,1,5.1-.7c.1.1.2.1.2.2h0c0,.1.1.2.2.1,1.7,1.2,3.3,2.4,5,3.6-.5,0-.9-.1-1.3-.1a23.81,23.81,0,0,0-3.8.1,24.35,24.35,0,0,0-7.5,1.9c-4.3,1.8-8.7,5-11.1,9.1-.4-1.2-.8-2.3-1.1-3.5A24.7,24.7,0,0,1,140.58,148.38Zm12-3.4c.1-.1,0-.2-.1-.3a35.84,35.84,0,0,1,5.5-7.3,25.8,25.8,0,0,1,7.1-4.7c-4.1,4.2-7.1,10.1-7,16,0,.1.2.2.3,0a34,34,0,0,1,2.8-9.4,24.5,24.5,0,0,1,6.2-7.7c.4.1.8.1,1.2.2h.2c2.5.4,5.1.8,7.6,1.3.6.1,1.2.2,1.9.3a37.39,37.39,0,0,0-8.6,8.7,32.35,32.35,0,0,0-5.4,11.4C160.38,150.68,156.48,147.78,152.58,145Zm33-11.1c-2.3-5.9-1.7-12.4.4-18.3a53.16,53.16,0,0,1,4.7-9.2c1.8-2.8,4-5.4,5.6-8.3.1-.2-.1-.4-.3-.2a.1.1,0,0,1-.1.1,2.92,2.92,0,0,1-.2-.9c2.7-1,5.5-2,8.2-3a52.09,52.09,0,0,0-9,19.9,47.62,47.62,0,0,0-1.1,11.3,52.71,52.71,0,0,0,.4,5.6,22.31,22.31,0,0,0,.8,4.5C191.88,134.88,188.78,134.38,185.58,133.88Zm28-44.2c-6,2.2-12.1,4.4-18.1,6.5-.4-1.4-.7-2.7-1-4.2a24.82,24.82,0,0,1-.1-7.2,34,34,0,0,1,1.7-7,37.55,37.55,0,0,1,3-5.6l.1-.1c.1.1.2.1.4.2.4.2.6-.4.3-.6,1-.6,2-1.3,3-1.9.5,3.6,2.4,7.2,4.2,10.3a36.62,36.62,0,0,0,7.3,9.3A6.89,6.89,0,0,1,213.58,89.68Zm-32.9-48.9a55.26,55.26,0,0,1-28.1,7.2,59,59,0,0,1-28.6-7.8h-.2c.2-1.6.5-3.3.7-4.9,9.8,3.6,20.7,4.8,31.1,4.6a91.52,91.52,0,0,0,29.7-5.7C183.88,36.48,182.28,38.58,180.68,40.78Zm-85.3,15a264,264,0,0,0,27-11.1c-.1,1.1-.3,2.3-.4,3.4a.35.35,0,0,1-.2-.1c-.3-.2-.6.3-.3.5.1.1.3.2.4.3-.1.5-.1,1.1-.2,1.6a52.79,52.79,0,0,0-5.6,3.5c-1.9,1.1-3.8,2.2-5.8,3.2a98.88,98.88,0,0,1-12.6,5.3,109.8,109.8,0,0,1-12.8,3.5c-4.5.9-9,1.3-13.6,2-.2,0-.1.3,0,.3a58.84,58.84,0,0,0,13.2-1.6A104.66,104.66,0,0,0,97.78,63a109.85,109.85,0,0,0,12.3-5.1c2.1-1.1,4.2-2.2,6.3-3.4a35.14,35.14,0,0,0,5.2-3.3c-.2,1.4-.3,2.7-.5,4.1a73,73,0,0,1-11.2,7.9,57,57,0,0,1-13.2,5,60.38,60.38,0,0,1-14.1,1.6,47.4,47.4,0,0,1-7.5-.6c-1.9-.3-3.7-.8-5.6-1.2-1.2-1.3-2.4-2.5-3.6-3.8A243.14,243.14,0,0,0,95.38,55.78Zm-13.6,14.5a56,56,0,0,0,14.7-1.4,59.24,59.24,0,0,0,13.5-5,46.94,46.94,0,0,0,11.1-7.7c-.4,3.7-.7,7.4-1,11.1a62,62,0,0,1-18.8,8.3,63.27,63.27,0,0,1-10.6,1.7c-3.1.2-6.1,0-9.2-.1a55.47,55.47,0,0,1-5.6-2.4c-.8-.8-1.5-1.6-2.3-2.4v-.1c.1-.3-.3-.6-.5-.4-.9-1-1.9-2-2.8-3A56.48,56.48,0,0,0,81.78,70.28Zm-8.4,2.8a2.65,2.65,0,0,1,.5.6c0,.1-.1.2,0,.2s.3.2.4.3c1.1,1.2,2.3,2.4,3.4,3.6a33.85,33.85,0,0,1-6.7,7.9,31.62,31.62,0,0,1-9.1,5.2A65.48,65.48,0,0,0,73.38,73.08Zm3.6,2.7c1,.5,1.9,1,2.9,1.4a.21.21,0,0,0,0,.4l1.7.3a40.61,40.61,0,0,0,36.1-4.4,64.56,64.56,0,0,1-7.8,10.8,48.26,48.26,0,0,1-9.7,3.3,42.32,42.32,0,0,1-11.2.8h-.1c-2.2-2.3-4.4-4.7-6.5-7,0-.2-.2-.3-.3-.4C80.28,79.28,78.58,77.48,77,75.78Zm31.6,9.9-.5.5a50.27,50.27,0,0,1-12.9,9.1c-.9-1-1.9-2-2.8-3V92a.28.28,0,0,0-.5-.2c-.9-1-1.8-1.9-2.7-2.9A38.5,38.5,0,0,0,108.58,85.68Zm-16.2,7.8c.7.7,1.3,1.4,2,2.1-.1.1-.3.1-.4.2-.4.2,0,.7.3.5l.6-.3c.6.7,1.3,1.3,1.9,2,.1,1.3.3,2.6.4,3.9a36.48,36.48,0,0,1-.1,4.7,30,30,0,0,1-.8,5.1c-.3,1.5-1,3-1.3,4.5-2.2-.5-4.5-1.1-6.7-1.6,1.8-3.2,2.7-7.1,3.4-10.7A44.77,44.77,0,0,0,92.38,93.48Zm3.2,23.8a.37.37,0,0,0,.1.3c3,3.8,4.1,8,4.4,12.8-2.8,1.1-5.6,2.1-8.4,3.2-.5.2-1.1.4-1.6.6a25,25,0,0,0-2.5-18.7C90.28,116,92.88,116.58,95.58,117.28Zm-3.2,16.8,4.5-1.7a.1.1,0,0,0,.1.1,35,35,0,0,1,6.4,6.9,25.83,25.83,0,0,1,2.2,4.4c.6,1.4.8,2.9,1.3,4.3-.9,1.7-1.9,3.4-2.8,5a51.67,51.67,0,0,0-13.4-18.3C91.28,134.48,91.88,134.28,92.38,134.08Zm12.3,20.3c-.1-.2-.1-.3-.2-.5.1-.1.1-.2.2-.4a24.4,24.4,0,0,1,5.9,2.1,17.42,17.42,0,0,1,5.3,4.8h-.1c-5,0-10.2-.3-15.2.1,1.2-1.9,2.3-3.9,3.4-5.8C104.18,155,104.78,154.78,104.68,154.38Zm11.4,5.2c-2.6-3.4-6.9-6.2-11.2-6.4a3.13,3.13,0,0,0,.5-1c3.6.5,7.2.5,10.8.7a.37.37,0,0,0,.3-.1C116.28,155.08,116.18,157.38,116.08,159.58Zm.1-7.3c-3.5-.2-7.1-.5-10.6-.4,1.2-2,2.3-4.1,3.4-6.2a15.75,15.75,0,0,1,4.6,1.6,15.6,15.6,0,0,1,3,2.7c-.1.8-.1,1.6-.2,2.4C116.38,152.38,116.38,152.28,116.18,152.28Zm17.3,8.2a30.37,30.37,0,0,1,10.8-8.7,25.12,25.12,0,0,1,7.6-2c1.1-.1,2.3-.1,3.4-.1.9,0,1.9.3,2.8.3,1.4,1,2.8,2,4.2,3.1-4.1-1.3-9.3.4-13,1.6a38.79,38.79,0,0,0-14.9,8.8Zm12.9,30.1a43.51,43.51,0,0,1,2.2-5.4,46.36,46.36,0,0,1,6.5-9.8,44.19,44.19,0,0,1,19.4-13,.22.22,0,0,0,.2-.2c3,2.2,5.9,4.4,8.9,6.5v.4a.25.25,0,0,0,.5,0c.6.5,1.3.9,1.9,1.4v.1c0,.1.2.2.2.1,1.9,1.4,3.9,2.8,5.8,4.2,0,.2.1.4.1.6a31.64,31.64,0,0,0-45.8,24.4c-.5-1.4-.9-2.8-1.4-4.2C145.48,193.88,145.78,192.18,146.38,190.58Zm45.6-16.9c-1.8-1.3-3.6-2.7-5.5-4a62.49,62.49,0,0,1,5.8-16.7,50.87,50.87,0,0,1,7.4-10.3A46.78,46.78,0,0,0,192,173.68Zm10.8-34.2.9-.9c.3-.2-.1-.6-.4-.4a48,48,0,0,0-11.5,14.6,47.13,47.13,0,0,0-5.6,16.7,24.26,24.26,0,0,0-2-1.4,19.72,19.72,0,0,0-.2-4.2c0-.1-.2-.1-.2,0-.7-10.3,2.5-20.4,10-27.9h0c1.3.2,2.6.4,3.9.7v.4a.3.3,0,0,0,.6,0v-.3c1.7.3,3.4.6,5,.8.1.2.4.2.6.1,4.3.7,8.6,1.5,12.9,2.2a.34.34,0,0,0,.6.1,15.53,15.53,0,0,1,2.1.4,44.46,44.46,0,0,0-7.1,6.6,54.12,54.12,0,0,0-7,9.5c-3.9,6.5-6.8,14.4-7.2,22-1.9-1.4-3.8-2.7-5.6-4.1A48.07,48.07,0,0,1,202.78,139.48Zm14.1-.5c-2.7-.4-5.4-.9-8.1-1.3-1.6-.3-3.1-.5-4.7-.8a80.44,80.44,0,0,1,4.9-26.1,86.63,86.63,0,0,1,13.7-23.5c1.6-.6,3.1-1.1,4.7-1.7a41.73,41.73,0,0,0-1.9,4.4c-.9,2.3-1.8,4.6-2.6,7a114,114,0,0,0-3.7,13.9A116,116,0,0,0,216.88,139Zm-1.8-49.8c-1.2-1.3-2.5-2.6-3.6-4a39.69,39.69,0,0,1-3.7-5.4,46.8,46.8,0,0,1-2.7-5.5c-.6-1.5-1.1-3.2-1.7-4.7,1.1-.7,2.1-1.4,3.2-2.1.2.1.3.1.5.2s.5-.4.2-.6a.1.1,0,0,1-.1-.1c.5-.3,1-.6,1.4-.9a44.52,44.52,0,0,0,22.6,17.2C225.78,85.38,220.38,87.28,215.08,89.18Zm-87.4-74.8c-.2,1.1-.5,2.2-.7,3.4a78.87,78.87,0,0,1-13.8,19.1,174.87,174.87,0,0,1-26.8,11.3,150.23,150.23,0,0,1-29.7,5.9c-1.8-2-3.7-3.9-5.5-5.9h0a.35.35,0,0,0-.1-.2h0c0-.2-.2-.4-.4-.3-.8-.9-1.6-1.7-2.5-2.6,15.1.9,30.6-2.4,44.5-8.2a105.57,105.57,0,0,0,35.4-24.1A9.37,9.37,0,0,0,127.68,14.38Zm-77,35.7a53.25,53.25,0,0,1-3.9,27.6c-4,9.3-10.6,16.7-18.6,22.6l-.1.1c-3.6-.8-7.2-1.7-10.8-2.5,8.8-4.8,16.3-12.5,21.9-20.6A70,70,0,0,0,50.68,50.08Zm-3.2,27.6c3.7-8.6,5.4-18.7,3.9-28,.4.4.7.8,1.1,1.2,3.1,3.3,6.1,6.6,9.2,9.9,0,.1-.1.3-.1.4h-.4a.3.3,0,0,0,0,.6h.2c-.3,1.4-.5,2.9-.8,4.4-.5,2.1-1.1,4.2-1.7,6.2a68.78,68.78,0,0,1-5.4,12.1,74.13,74.13,0,0,1-15.1,18.3h-.2c-3.3-.8-6.5-1.5-9.8-2.3C37.08,95.38,43.58,86.68,47.48,77.68Zm6.7,7.1A65.57,65.57,0,0,0,59.48,73a63.21,63.21,0,0,0,1.8-6.2,27.68,27.68,0,0,0,1-5h.4c1.8,2,3.7,3.9,5.5,5.9a.19.19,0,0,0-.1.3,1.69,1.69,0,0,0,.5.2l3.7,4c.1.2.3.3.4.5a72,72,0,0,1-28,31.8c-1.9-.5-3.9-.9-5.8-1.4A62.55,62.55,0,0,0,54.18,84.78ZM82,82.38c1.2,1.3,2.4,2.6,3.7,3.9v.1c-.5,2-.4,4.4-.7,6.5a51.71,51.71,0,0,1-1.6,6.8c-1.4,4.5-3.8,8.3-6.1,12.4-4.6-1.1-9.2-2.2-13.9-3.3l-1.1-.3A42.24,42.24,0,0,0,82,82.38Zm1.8,17.9a45.78,45.78,0,0,0,1.8-7.3,23.08,23.08,0,0,0,.5-6.4c1.9,2,3.8,4.1,5.7,6.1a51.71,51.71,0,0,1-.6,11.1c-.6,3.7-2,7.2-3.1,10.7l-10.2-2.4A40.8,40.8,0,0,0,83.78,100.28Zm3,14.9a28.5,28.5,0,0,1,2.9,18.8c-.1,0-.3.1-.1.2l.1.1-7.8,3a28.21,28.21,0,0,0,2-11.5,29.07,29.07,0,0,0-.9-6.5,21.44,21.44,0,0,0-1.8-5.4C83,114.28,84.88,114.78,86.78,115.18Zm3.5,19.7a61,61,0,0,1,13.4,18.8c-1.5,2.5-2.9,5-4.5,7.5-1.6-4.3-4.5-8.3-7.3-11.8a41.87,41.87,0,0,0-12-10.6c.4-.2.8-.3,1.3-.5h.2C84.28,137.18,87.28,136,90.28,134.88Zm.6,14.3a62.9,62.9,0,0,1,4.8,6.7c1.2,2,2.1,4.1,3.1,6.1-.9,1.5-1.8,2.9-2.7,4.4a4.05,4.05,0,0,0-.5.9,85.66,85.66,0,0,0-9.1-14.7,73.85,73.85,0,0,0-11.1-11.9c1.5-.6,2.9-1.1,4.4-1.7v.1A75.6,75.6,0,0,1,90.88,149.18Zm-4.7,4.1a87.68,87.68,0,0,1,8.9,14.6c-1.5,2.4-3.1,4.7-4.6,7.1a41.05,41.05,0,0,0-3.4-8.8,53.88,53.88,0,0,0-5.5-8.8c-4.1-5.3-9.3-10.4-15.4-13.4l.1-.1c.9-.3,1.8-.7,2.6-1H69c1.9-.7,3.8-1.5,5.8-2.2A122.35,122.35,0,0,1,86.18,153.28Zm4.3,23.1c1.2-1.8,2.4-3.7,3.7-5.6,1.4,1.3,3.2,2.4,4.7,3.6,1.9,1.5,3.8,3,5.7,4.6,3.3,2.8,6.4,5.7,9.5,8.6.3.6.6,1.1.9,1.7a12.81,12.81,0,0,0,1.1,2v.2l-.2.2c-.1.1,0,.1.1.1a.1.1,0,0,0,.1-.1c.1,2.2.3,4.4.4,6.5-1.4-.6-2.8-1.2-4.3-1.7a89.3,89.3,0,0,0-10.8-10.5,60.87,60.87,0,0,0-12.3-7.8A6.23,6.23,0,0,0,90.48,176.38Zm25.9,5c.1,0,.1.1.2.1a.22.22,0,0,0,.3-.3c-.1-.2-.3-.4-.5-.7-.1-6.2-.1-12.5.2-18.7a29,29,0,0,0,4.1-.6,27.57,27.57,0,0,1,13.2,2.8l-.2.2c-.2.2.1.4.3.3h.1c.8,2.5,1.7,5.1,2.5,7.6a37.82,37.82,0,0,0-9.5-.9c-3.5.1-7.4.5-10.6,2-.1.1,0,.2.1.2,3.5-.6,6.9-1.5,10.5-1.6a39.47,39.47,0,0,1,9.7,1c.6,1.9,1.3,3.9,1.9,5.8.9,2.7,1.8,5.5,2.7,8.2a28.18,28.18,0,0,0-12.9-.8,29.65,29.65,0,0,0-6.6,2,16.28,16.28,0,0,0-4.9,2.9C116.58,187.78,116.48,184.58,116.38,181.38Zm5.3,7.4a28.82,28.82,0,0,1,6.5-2,26.94,26.94,0,0,1,13.5.9c.4,1.3.9,2.6,1.3,3.9,0,.4-.1.8-.1,1.2a.15.15,0,1,0,.3,0c0-.1.1-.2.1-.4.1.2.1.4.2.6a26.26,26.26,0,0,0-4.8-.6,61.18,61.18,0,0,0-7.4-.1,42,42,0,0,0-14,2.8c-.1-1.2-.2-2.4-.2-3.6A29.29,29.29,0,0,1,121.68,188.78Zm8.9,4.2q3.45-.15,6.9,0c1.2.1,2.4.2,3.6.4.8.1,1.7.3,2.5.4.9,2.6,1.7,5.2,2.6,7.9,0,.4-.1.8-.1,1.3-4.9-.9-9.8-1.6-14.7-2.3-4.6-.7-9.3-1.7-14-1.9-.1-1.1-.2-2.2-.2-3.2A54.84,54.84,0,0,1,130.58,193Zm-6.3,7.3c2.5.4,5,.7,7.4,1.1,4.8.7,9.5,1.4,14.3,1.9a.3.3,0,0,0,.6,0c.4,1.3.8,2.6,1.3,3.9a55.84,55.84,0,0,0-29.8-.3c-.3-2.6-.5-5.1-.7-7.7C119.58,199.68,122,200,124.28,200.28Zm35.3-1.9a64.59,64.59,0,0,1,13.4-9.1,61.26,61.26,0,0,1,30-6.6c.1.1.2.1.2.2a86.83,86.83,0,0,0-28.1,11.7,90.37,90.37,0,0,0-12.9,10.2,69.47,69.47,0,0,0-10.3,12c-.4-1.2-.8-2.3-1.1-3.5,0-.1,0-.1-.1-.2-.4-1.1-.7-2.2-1.1-3.4A82.5,82.5,0,0,1,159.58,198.38Zm61.9-58.6c.1-.2-.2-.5-.4-.4a.76.76,0,0,1-.4.2c-1.1-.2-2.1-.3-3.2-.5a124.24,124.24,0,0,1,2.3-27.9,106.11,106.11,0,0,1,3.6-13.4c.7-2.2,1.5-4.4,2.3-6.5.5-1.3,1-2.6,1.6-3.9a16.67,16.67,0,0,0,.8-2c1.3-.5,2.5-.9,3.8-1.4,1.1-.4,2.2-.8,3.2-1.2a86,86,0,0,0-10.1,27.8c-1.8,9.5-2.4,19.9-.7,29.5C223.38,140.08,222.48,139.88,221.48,139.78Zm-.4-81.8a42.94,42.94,0,0,0,5.9,5.4l-7.2-.3a38.8,38.8,0,0,0-5.9-.2v-.1c1.1-.7,2.2-1.4,3.3-2.2S219.68,58.88,221.08,58Zm-18.8-45.4a111.41,111.41,0,0,0,6.9,23.3,148.39,148.39,0,0,0,11,21.8.37.37,0,0,0,.3.1c-2.4,1.4-4.7,2.9-7.1,4.4a115.32,115.32,0,0,1-17.1-41.3C198.18,18.18,200.28,15.38,202.28,12.58Zm-37.6,3a114.5,114.5,0,0,0,18.5.3,87.77,87.77,0,0,0,8.8-1,60.89,60.89,0,0,0,8.5-1.7c-1.5,2.1-3.1,4.3-4.6,6.4v-.2c0-.1-.2-.1-.2,0a.6.6,0,0,0,.1.4c-1.2,1.6-2.3,3.3-3.5,4.9a77.76,77.76,0,0,1-25.4-2.7,77.21,77.21,0,0,1-12.9-4.8c-3.3-1.6-6.3-3.5-9.4-5.4A99,99,0,0,0,164.68,15.58Zm-34.4-9a89.64,89.64,0,0,0,12.5,4.8,50.15,50.15,0,0,0,10.4,6.2,75.85,75.85,0,0,0,13,5,76.44,76.44,0,0,0,25.6,2.9c-.5.6-.9,1.3-1.4,1.9a78.79,78.79,0,0,1-15.3,1.7,72.63,72.63,0,0,1-16.7-2,70.58,70.58,0,0,1-29.3-15c.1-.2.1-.5.2-.7l.7-.7.3-.3c.3-.3-.2-.8-.5-.5l-.2.2c0-.1.1-.3.1-.4C129.78,8.68,130.08,7.68,130.28,6.58Zm-89.7,30.3a115.6,115.6,0,0,0,23.5-1.5,137.17,137.17,0,0,0,23.7-6,128.87,128.87,0,0,0,41.7-23.7c-.5,1.9-.9,3.8-1.3,5.7A108.3,108.3,0,0,1,92.68,36c-14.3,6.2-29.6,8.7-45.2,8.5-2-2.2-4.1-4.3-6.1-6.5a7.63,7.63,0,0,0-.8-1.1ZM9.68,96.18l-1.5-.3a97.59,97.59,0,0,0,21.1-27.1,109.91,109.91,0,0,0,6.9-15.7,88.24,88.24,0,0,0,4-15.3c3.3,3.6,6.7,7.2,10.1,10.7a89.32,89.32,0,0,1-4,14.3,66.6,66.6,0,0,1-7.5,13.9,69.47,69.47,0,0,1-10.3,12,89,89,0,0,1-12.1,9.1c-2-.5-4-.9-6.1-1.4C10.18,96.08,9.88,96,9.68,96.18Zm17.2,61.9c-.2.1-.4.1-.5.2-2.3-10.2-5.2-20.2-7.8-30.3s-5.3-20.5-8-30.7c3.8.9,7.6,1.8,11.5,2.6,1.1,4.6,2.5,9.1,3.4,13.8a120.26,120.26,0,0,1,2,14.5,131.38,131.38,0,0,1-.9,29.4A.35.35,0,0,0,26.88,158.08Zm.3-.3a133.91,133.91,0,0,0,1-29,134.55,134.55,0,0,0-1.9-14.2,73.14,73.14,0,0,0-3.9-14.6c2.1.5,4.2.9,6.2,1.4l5.8,1.4c.9,4.2,1.9,8.4,2.5,12.7a93.09,93.09,0,0,1,.8,12.9,98,98,0,0,1-1,13.3c-.6,4.3-1.8,8.4-2.7,12.6,0,.2.2.3.3.1,1.7-4.1,2.4-8.7,3.1-13.1a80.09,80.09,0,0,0,1-12.9,85.37,85.37,0,0,0-.8-13.4,60.94,60.94,0,0,0-2.5-12l2.6.6-.5.5c-.1.1,0,.3.2.2s.5-.4.8-.6l.2.1a85.79,85.79,0,0,1,9.8,45.8c0,.2.2.2.2,0a79.66,79.66,0,0,0-9.2-45.6l7.4,1.7a103.58,103.58,0,0,1,9,18.3c2.5,6.8,3.7,13.8,5,21,0,.2.4.2.4-.1-.4-7.1-2.4-14.4-4.7-21.1a87.07,87.07,0,0,0-8.7-17.9l9.3,2.2c7.8,1.8,15.6,3.7,23.5,5.6.5,1.8,1.4,3.4,1.9,5.2a31,31,0,0,1,1,6.8,33.3,33.3,0,0,1-1.8,11.7c-2.3.9-4.6,1.7-6.9,2.6l-.3-.3c-.1-.1-.3.1-.2.2l.2.2c-1.7.6-3.4,1.3-5.1,1.9a73.23,73.23,0,0,0-.4-8.1c4.1-6,6.3-13.8,7.1-21a.3.3,0,0,0-.6,0,66.14,66.14,0,0,1-2.4,10.9,80,80,0,0,1-4.1,9.5c-.2-2.2-.5-4.3-.8-6.4-.4-2.7-1-5.4-1.6-8.1a45.55,45.55,0,0,0-2.3-8c-.1-.3-.6-.1-.5.2.5,2.5,1.4,5,2.1,7.4.7,2.7,1.2,5.4,1.7,8.1a137.73,137.73,0,0,1,1.7,15.6c-1.1.4-2.2.8-3.2,1.2l-4.8,1.8c-.2-.1-.4-.3-.6-.4s-.2.1-.1.1a1.76,1.76,0,0,1,.5.4c-6.6,2.5-13.1,5-19.7,7.5v-.1c-.2-.4-.8-.1-.6.4-.2.1-.5.2-.7.3-4.1,1.6-8.2,3.1-12.4,4.6C27.08,158,27.08,157.88,27.18,157.78Zm20.5,13.3c1,2.9,2,5.8,2.9,8.8.7,2.2,1.2,4.5,1.9,6.8-1.4-1.7-2.7-3.5-4.1-5.2A232.9,232.9,0,0,0,27.58,159c4.2-1.6,8.4-3.3,12.6-4.9.1,0,.2-.1.3-.1A162.16,162.16,0,0,1,47.68,171.08Zm17.1,4.1a103.57,103.57,0,0,0-18.7-11.1h-.2c-1.4-3.5-3-7.1-4.6-10.5l11.1-4.2a.25.25,0,0,0,.1.4c11.4,10.3,22.8,20.6,34.5,30.6-1.1,1.5-2.1,3.1-3.2,4.6v-.1c-.7-1.7-2.3-3.2-3.4-4.7-1.4-1.7-2.9-3.4-4.4-5a92.5,92.5,0,0,0-9.7-9.1,86.83,86.83,0,0,0-21.9-13.5c-.1,0-.2.1-.1.2a119.83,119.83,0,0,1,21.6,13.8,111.29,111.29,0,0,1,9.4,8.8c1.4,1.5,2.8,3.1,4.1,4.6,1.4,1.7,2.6,3.8,4.2,5.2.1.1.1.1.2,0-.9,1.2-1.7,2.4-2.6,3.6A149.71,149.71,0,0,0,64.78,175.18Zm22.7,5.7.2.2c.1.1.3-.1.2-.2s-.2-.1-.2-.2c.5-.7,1-1.4,1.4-2.1a97.4,97.4,0,0,1,12.1,8,83.19,83.19,0,0,1,10.1,9.6,65,65,0,0,0-13.9-3,62.54,62.54,0,0,0-10.6,0,42.3,42.3,0,0,0-9.3,1.7C80.78,190.38,84.18,185.68,87.48,180.88Zm-13,17.8c.2,0,.3-.2.3-.4a5.5,5.5,0,0,1,.7-.9c.5-.6,1-1.3,1.5-1.9,3.1-.6,6.1-1.3,9.3-1.6a68.25,68.25,0,0,1,10.1-.1,57,57,0,0,1,20.3,5.3h.1c.5,6,1.1,12,2,17.9-.1.1-.2.1-.4.2s-.1.4.1.3.2-.1.3-.1a3.55,3.55,0,0,0,.2,1c-5.5-6.3-13.1-10.9-20.7-13.9a56,56,0,0,0-12.8-3.3,42.26,42.26,0,0,0-12.8-.1A29.94,29.94,0,0,1,74.48,198.68Zm-6.7,8.5c1.5-1.9,3.1-3.8,4.6-5.7a81.19,81.19,0,0,1,12.1.3,53.58,53.58,0,0,1,13.1,3.3,55.44,55.44,0,0,1,11.6,6,63,63,0,0,1,9.9,8.7c.6,4.2,1.4,8.5,2.2,12.7.1.3.1.5.2.8C109.58,216.28,88.28,206.38,67.78,207.18Zm52,12.8a.3.3,0,0,0,0-.4v-.1a.6.6,0,0,0-.1-.4c-.1-.6-.2-1.3-.3-1.9a66.31,66.31,0,0,1,13.7-4.4,44.32,44.32,0,0,1,8.1-.7c2.6,0,5.2.5,7.7.4.3,0,.4-.5.1-.5-2.4-.8-5.3-.6-7.8-.6a51.38,51.38,0,0,0-7.8.7,44.06,44.06,0,0,0-14.1,4.6l-1.2-9.6a60.2,60.2,0,0,1,30.1.8c.6,1.7,1.1,3.4,1.7,5.2-11.3,2.6-20.2,11.7-27.7,20.1Q120.83,226.58,119.78,220Zm18.4,9.7a46.67,46.67,0,0,0-9,2.7c-1.3.5-2.5,1.1-3.7,1.7-.8.4-1.8.9-2.6,1.4v-.1c-.1-.1-.2-.3-.3-.4-.1-.5-.2-.9-.3-1.4a154.46,154.46,0,0,1,12.5-11.8,42.36,42.36,0,0,1,15.3-8c.4,1.3.9,2.6,1.3,3.9h0c-.1.1,0,.2.1.2,1.2,3.8,2.5,7.6,3.7,11.4A48.52,48.52,0,0,0,138.18,229.68Zm46.7-23.4c-10.7,5.8-21,13.4-29,22.7-.1-.4-.3-.8-.4-1.2a90.62,90.62,0,0,1,10-13.9,80,80,0,0,1,13-11.7,78.43,78.43,0,0,1,31.6-13.4c.5-.1.3-.9-.2-.8a79.65,79.65,0,0,0-32.2,13.8c-9.1,6.6-17.4,15.4-22.4,25.5-1.1-3.3-2.2-6.7-3.2-10a127.57,127.57,0,0,1,10.2-11.7,81.4,81.4,0,0,1,13.1-10.3,84.94,84.94,0,0,1,28.6-11.6l12.3,9a25.6,25.6,0,0,1,2.6,2A106.24,106.24,0,0,0,184.88,206.28Zm29.6-16.2c-.5-4.1-1-8.1-1.1-12.2a67,67,0,0,1,1.4-13.4,65,65,0,0,1,3.7-12.1,80.38,80.38,0,0,1,6-11.2v.2a.26.26,0,0,0,.5-.1v-.1c.3.1.6.1.9.2a40.45,40.45,0,0,0-2,4.8c-.9,2.2-1.7,4.5-2.4,6.8a102.91,102.91,0,0,0-3,13.6,83.09,83.09,0,0,0,.4,26.8C217.58,192.28,216,191.18,214.48,190.08Zm10.7-23.7a217.65,217.65,0,0,0-1.8,30.2c-1.3-1-2.6-1.9-3.9-2.8a101.72,101.72,0,0,1-.3-27,98.56,98.56,0,0,1,2.8-13.1c.6-2.1,1.4-4.3,2.1-6.4.7-1.9,1.8-3.8,2.5-5.8,1.1.2,2.2.4,3.2.6C227.88,150.08,226.28,158.28,225.18,166.38Zm5.9-25.1h-.2c.4-1.5.8-3.1,1.3-4.6A43.56,43.56,0,0,0,231.08,141.28Zm-.9-.1c-1.1-.2-2.1-.4-3.2-.5h0c.1-.3-.3-.4-.5-.2l-.1.1a7.84,7.84,0,0,0-1.4-.2c0-.1,0-.1-.1-.1a128.07,128.07,0,0,1-.8-13.9,99.29,99.29,0,0,1,1.6-15.4,92.81,92.81,0,0,1,4-14.6,115.78,115.78,0,0,1,6.5-13.8l6.6-2.4c-2.1,8.8-3.6,17.8-5.3,26.7l-2.7,13.8c-.8,4.1-1.9,8.3-2.4,12.5C231.68,135.68,230.88,138.38,230.18,141.18Zm6.5-20.5c-.8,2.2-1.6,4.4-2.4,6.7.4-2.3.8-4.5,1.2-6.8l2.7-13.8c1.8-9,3.8-17.9,5.2-27l6.6-2.4c4-1.4,8-2.8,11.9-4.2A174.78,174.78,0,0,0,236.68,120.68Z"/><path class="cls-1" d="M99.88,133.28c-.1-.1-.3.1-.2.2.9,1.2,2,2.4,2.8,3.7a18.68,18.68,0,0,1,2,5.1c.1.3.6.2.5-.1A13.77,13.77,0,0,0,99.88,133.28Z"/><path class="cls-1" d="M105,119.18a8.35,8.35,0,0,0-.8,1.9,18.28,18.28,0,0,0-.8,2.5c-.1.2.2.3.3.1.3-.7.6-1.4.9-2.2a6.26,6.26,0,0,0,.7-2.2C105.38,119.08,105.08,119,105,119.18Z"/></g></svg>
